<?xml version="1.0" encoding="UTF-8" standalone="no"?>
<svg
   xmlns:dc="http://purl.org/dc/elements/1.1/"
   xmlns:cc="http://creativecommons.org/ns#"
   xmlns:rdf="http://www.w3.org/1999/02/22-rdf-syntax-ns#"
   xmlns:svg="http://www.w3.org/2000/svg"
   xmlns="http://www.w3.org/2000/svg"
   xmlns:sodipodi="http://sodipodi.sourceforge.net/DTD/sodipodi-0.dtd"
   xmlns:inkscape="http://www.inkscape.org/namespaces/inkscape"
   inkscape:version="1.0 (4035a4fb49, 2020-05-01)"
   height="73.30101"
   width="421.5"
   sodipodi:docname="Iqvia-logo-color.svg"
   xml:space="preserve"
   viewBox="0 0 421.5 73.30101"
   y="0px"
   x="0px"
   id="logo"
   version="1.1"><metadata
   id="metadata65"><rdf:RDF><cc:Work
       rdf:about=""><dc:format>image/svg+xml</dc:format><dc:type
         rdf:resource="http://purl.org/dc/dcmitype/StillImage" /><dc:title></dc:title></cc:Work></rdf:RDF></metadata><defs
   id="defs63" /><sodipodi:namedview
   inkscape:current-layer="logo"
   inkscape:window-maximized="0"
   inkscape:window-y="0"
   inkscape:window-x="0"
   inkscape:cy="36.649092"
   inkscape:cx="210.8"
   inkscape:zoom="0.58880291"
   fit-margin-bottom="0"
   fit-margin-right="0"
   fit-margin-left="0"
   fit-margin-top="0"
   showgrid="false"
   id="namedview61"
   inkscape:window-height="480"
   inkscape:window-width="710"
   inkscape:pageshadow="2"
   inkscape:pageopacity="0"
   guidetolerance="10"
   gridtolerance="10"
   objecttolerance="10"
   borderopacity="1"
   bordercolor="#666666"
   pagecolor="#ffffff" />
<style
   id="style2"
   type="text/css">
	.st0{fill:#00A1DF;}
	.st1{fill:#005487;}
	.st2{fill:#7FA9C3;}
</style>
<g
   transform="translate(-67.7,-80.850908)"
   id="g58">
	<g
   id="g18">
		<path
   id="path4"
   d="m 244.4,80.9 c -18.6,1 -33,16.9 -32,35.6 1,18.6 16.9,33 35.6,32 2.7,-0.1 5.3,-0.6 7.8,-1.3 v 0 l 2.5,4.8 c 1,2 3.4,2.7 5.4,1.7 2,-1 2.7,-3.4 1.7,-5.4 l -2.3,-4.3 c 10.6,-6.2 17.5,-18 16.8,-31.1 -0.8,-18.6 -16.8,-33 -35.5,-32 z m 15.1,56 -2.9,-5.5 c -1,-2 -3.4,-2.7 -5.4,-1.7 -2,1 -2.7,3.4 -1.7,5.4 l 2.5,4.8 v 0 c -1.4,0.3 -2.9,0.5 -4.4,0.6 -14.2,0.7 -26.4,-10.2 -27.2,-24.5 -0.7,-14.2 10.2,-26.4 24.5,-27.2 14.2,-0.7 26.4,10.2 27.2,24.5 0.5,9.9 -4.7,18.8 -12.6,23.6 z"
   class="st0" />
		<path
   id="path6"
   d="m 192.4,148.4 c -2.2,0 -4,-1.8 -4,-4 V 85 c 0,-2.2 1.8,-4 4,-4 2.2,0 4,1.8 4,4 v 59.4 c 0,2.2 -1.8,4 -4,4 z"
   class="st0" />
		<path
   id="path8"
   d="m 382.4,148.4 c -2.2,0 -4,-1.8 -4,-4 V 85 c 0,-2.2 1.8,-4 4,-4 2.2,0 4,1.8 4,4 v 59.4 c 0,2.2 -1.8,4 -4,4 z"
   class="st1" />
		<path
   id="path10"
   d="m 325.4,148.4 c 0,0 0,0 0,0 -1.5,0 -2.9,-0.8 -3.5,-2.1 L 290.8,86.9 c -1,-2 -0.3,-4.4 1.7,-5.4 2,-1 4.4,-0.3 5.4,1.7 l 27.6,52.7 28.1,-52.7 c 1,-1.9 3.5,-2.7 5.4,-1.6 1.9,1 2.7,3.5 1.6,5.4 l -31.7,59.4 c -0.7,1.2 -2.1,2 -3.5,2 z"
   class="st1" />
		<g
   id="g16">
			<path
   id="path12"
   d="M 452.2,134.9 H 433 c -2.2,0 -4,-1.8 -4,-4 0,-2.2 1.8,-4 4,-4 h 19.3 c 2.2,0 4,1.8 4,4 0,2.2 -1.8,4 -4.1,4 z"
   class="st1" />
			<path
   id="path14"
   d="m 473.9,148.4 c -1.4,0 -2.8,-0.8 -3.5,-2.1 l -27.6,-52.7 -28.1,52.7 c -1,1.9 -3.5,2.7 -5.4,1.6 -1.9,-1 -2.7,-3.5 -1.6,-5.4 l 31.7,-59.4 c 0.7,-1.3 2.1,-2.2 3.5,-2.1 1.5,0 2.8,0.8 3.5,2.1 l 31.1,59.4 c 1,2 0.3,4.4 -1.7,5.4 -0.6,0.3 -1.3,0.5 -1.9,0.5 z"
   class="st1" />
		</g>
	</g>
	<g
   id="g24">
		<path
   id="path20"
   d="m 474.5,90.9 h -1.4 V 82.3 H 470 V 81 h 7.7 v 1.2 h -3.2 z"
   class="st1" />
		<path
   id="path22"
   d="m 484.2,88.6 v 0 l 2.9,-7.6 h 2.1 v 9.8 h -1.4 v -8.2 0 l -3.3,8.2 h -0.9 l -3.3,-8.2 v 0 8.2 H 479 V 81 h 2.1 z"
   class="st1" />
	</g>
	<g
   id="g56">
		<path
   id="path26"
   d="m 165.2,137.3 h -19.6 c -1.4,2.5 -3,4.8 -4.7,6.8 h 24.4 c 1.9,0 3.4,-1.5 3.4,-3.4 v 0 c -0.1,-1.9 -1.6,-3.4 -3.5,-3.4 z"
   class="st1" />
		<path
   id="path28"
   d="m 165.2,124.3 h -15 c -0.5,2.4 -1.1,4.6 -1.9,6.8 h 16.8 c 1.9,0 3.4,-1.5 3.4,-3.4 0,-1.9 -1.4,-3.4 -3.3,-3.4 z"
   class="st1" />
		<path
   id="path30"
   d="m 165.2,111.3 h -14.1 c 0.1,1.1 0.1,2.1 0.1,3.2 0,1.2 0,2.4 -0.1,3.6 h 14.1 c 1.9,0 3.4,-1.5 3.4,-3.4 0,-1.9 -1.5,-3.4 -3.4,-3.4 z"
   class="st1" />
		<path
   id="path32"
   d="m 165.2,98.3 h -16.7 c 0.8,2.2 1.4,4.5 1.8,6.8 h 14.9 c 1.9,0 3.4,-1.5 3.4,-3.4 v 0 c 0,-1.8 -1.5,-3.4 -3.4,-3.4 z"
   class="st1" />
		<path
   id="path34"
   d="m 165.2,85.3 h -24 c 1.7,2 3.3,4.3 4.6,6.8 h 19.4 c 1.9,0 3.4,-1.5 3.4,-3.4 0,-1.9 -1.5,-3.4 -3.4,-3.4 z"
   class="st1" />
		<path
   id="path36"
   d="m 100.3,140.7 v 0 c 0,-1.9 1.5,-3.4 3.4,-3.4 H 90.3 c -1.9,0 -3.4,1.5 -3.4,3.4 v 0 c 0,1.9 1.5,3.4 3.4,3.4 h 13.4 c -1.8,0 -3.4,-1.6 -3.4,-3.4 z"
   class="st0" />
		<path
   id="path38"
   d="m 145.6,137.3 h -41.9 c -1.9,0 -3.4,1.5 -3.4,3.4 v 0 c 0,1.9 1.5,3.4 3.4,3.4 h 37.1 c 1.8,-2.1 3.4,-4.3 4.8,-6.8 z"
   class="st2" />
		<path
   id="path40"
   d="m 90.8,128.4 c -0.5,-2.2 1.2,-4.1 3.3,-4.1 H 80.7 c -1.9,0 -3.4,1.5 -3.4,3.4 0,1.9 1.5,3.4 3.4,3.4 h 13.5 c -1.6,0 -3.1,-1.1 -3.4,-2.7 z"
   class="st0" />
		<path
   id="path42"
   d="M 150.3,124.3 H 94.1 c -2.1,0 -3.8,1.9 -3.3,4.1 0.3,1.6 1.8,2.7 3.4,2.7 h 54.1 c 0.9,-2.2 1.5,-4.5 2,-6.8 z"
   class="st2" />
		<path
   id="path44"
   d="m 81.2,115.4 c -0.5,-2.2 1.2,-4.1 3.3,-4.1 H 71.1 c -1.9,0 -3.4,1.5 -3.4,3.4 0,1.9 1.5,3.4 3.4,3.4 h 13.5 c -1.6,0 -3,-1.1 -3.4,-2.7 z"
   class="st0" />
		<path
   id="path46"
   d="m 81.2,115.4 c 0.3,1.6 1.8,2.7 3.4,2.7 H 151 c 0.1,-1.2 0.1,-2.4 0.1,-3.6 0,-1.1 0,-2.2 -0.1,-3.2 H 84.6 c -2.1,0 -3.8,1.9 -3.4,4.1 z"
   class="st2" />
		<path
   id="path48"
   d="m 85.9,101.7 c 0,-1.9 1.5,-3.4 3.4,-3.4 H 75.9 c -1.9,0 -3.4,1.5 -3.4,3.4 v 0 c 0,1.9 1.5,3.4 3.4,3.4 h 13.4 c -1.9,0 -3.4,-1.5 -3.4,-3.4 z"
   class="st0" />
		<path
   id="path50"
   d="M 148.5,98.3 H 89.3 c -1.9,0 -3.4,1.5 -3.4,3.4 0,1.9 1.5,3.4 3.4,3.4 h 61 c -0.4,-2.3 -1,-4.6 -1.8,-6.8 z"
   class="st2" />
		<path
   id="path52"
   d="m 110.6,89.5 c -0.5,-2.2 1.2,-4.1 3.3,-4.1 h -13.4 c -1.9,0 -3.4,1.5 -3.4,3.4 0,1.9 1.5,3.4 3.4,3.4 H 114 c -1.5,0 -3,-1.1 -3.4,-2.7 z"
   class="st0" />
		<path
   id="path54"
   d="M 141.2,85.3 H 114 c -2.1,0 -3.8,1.9 -3.3,4.1 0.3,1.6 1.8,2.7 3.4,2.7 h 31.7 c -1.3,-2.4 -2.9,-4.7 -4.6,-6.8 z"
   class="st2" />
	</g>
</g>
</svg>
